<svg width="145" height="76" viewBox="0 0 145 76" fill="none" xmlns="http://www.w3.org/2000/svg">
<path d="M71.5489 49.9271C71.8483 49.0058 73.1517 49.0058 73.4511 49.9271L75.5309 56.3283C75.6648 56.7403 76.0488 57.0193 76.482 57.0193H83.2126C84.1814 57.0193 84.5841 58.2589 83.8004 58.8283L78.3552 62.7844C78.0047 63.0391 77.8581 63.4905 77.9919 63.9025L80.0718 70.3037C80.3712 71.225 79.3167 71.9911 78.533 71.4217L73.0878 67.4656C72.7373 67.2109 72.2627 67.2109 71.9122 67.4656L66.467 71.4217C65.6833 71.9911 64.6288 71.225 64.9282 70.3037L67.0081 63.9025C67.1419 63.4905 66.9953 63.0391 66.6448 62.7844L61.1996 58.8283C60.4159 58.2589 60.8186 57.0193 61.7874 57.0193H68.518C68.9512 57.0193 69.3352 56.7403 69.4691 56.3283L71.5489 49.9271Z" fill="#F9896B"/>
<path d="M100.549 49.9271C100.848 49.0058 102.152 49.0058 102.451 49.9271L104.531 56.3283C104.665 56.7403 105.049 57.0193 105.482 57.0193H112.213C113.181 57.0193 113.584 58.2589 112.8 58.8283L107.355 62.7844C107.005 63.0391 106.858 63.4905 106.992 63.9025L109.072 70.3037C109.371 71.225 108.317 71.9911 107.533 71.4217L102.088 67.4656C101.737 67.2109 101.263 67.2109 100.912 67.4656L95.467 71.4217C94.6833 71.9911 93.6288 71.225 93.9282 70.3037L96.0081 63.9025C96.1419 63.4905 95.9953 63.0391 95.6448 62.7844L90.1996 58.8283C89.4159 58.2589 89.8186 57.0193 90.7874 57.0193H97.518C97.9512 57.0193 98.3352 56.7403 98.4691 56.3283L100.549 49.9271Z" fill="#F9896B"/>
<path d="M129.549 49.9271C129.848 49.0058 131.152 49.0058 131.451 49.9271L133.531 56.3283C133.665 56.7403 134.049 57.0193 134.482 57.0193H141.213C142.181 57.0193 142.584 58.2589 141.8 58.8283L136.355 62.7844C136.005 63.0391 135.858 63.4905 135.992 63.9025L138.072 70.3037C138.371 71.225 137.317 71.9911 136.533 71.4217L131.088 67.4656C130.737 67.2109 130.263 67.2109 129.912 67.4656L124.467 71.4217C123.683 71.9911 122.629 71.225 122.928 70.3037L125.008 63.9025C125.142 63.4905 124.995 63.0391 124.645 62.7844L119.2 58.8283C118.416 58.2589 118.819 57.0193 119.787 57.0193H126.518C126.951 57.0193 127.335 56.7403 127.469 56.3283L129.549 49.9271Z" fill="#F9896B"/>
<path d="M13.5489 49.9271C13.8483 49.0058 15.1517 49.0058 15.4511 49.9271L17.5309 56.3283C17.6648 56.7403 18.0488 57.0193 18.482 57.0193H25.2126C26.1814 57.0193 26.5841 58.2589 25.8004 58.8283L20.3552 62.7844C20.0047 63.0391 19.8581 63.4905 19.9919 63.9025L22.0718 70.3037C22.3712 71.225 21.3167 71.9911 20.533 71.4217L15.0878 67.4656C14.7373 67.2109 14.2627 67.2109 13.9122 67.4656L8.467 71.4217C7.68329 71.9911 6.62881 71.225 6.92816 70.3037L9.00804 63.9025C9.14192 63.4905 8.99526 63.0391 8.64477 62.7844L3.19957 58.8283C2.41585 58.2589 2.81863 57.0193 3.78735 57.0193H10.518C10.9512 57.0193 11.3352 56.7403 11.4691 56.3283L13.5489 49.9271Z" fill="#F9896B"/>
<path d="M42.5489 49.9271C42.8483 49.0058 44.1517 49.0058 44.4511 49.9271L46.5309 56.3283C46.6648 56.7403 47.0488 57.0193 47.482 57.0193H54.2126C55.1814 57.0193 55.5841 58.2589 54.8004 58.8283L49.3552 62.7844C49.0047 63.0391 48.8581 63.4905 48.9919 63.9025L51.0718 70.3037C51.3712 71.225 50.3167 71.9911 49.533 71.4217L44.0878 67.4656C43.7373 67.2109 43.2627 67.2109 42.9122 67.4656L37.467 71.4217C36.6833 71.9911 35.6288 71.225 35.9282 70.3037L38.0081 63.9025C38.1419 63.4905 37.9953 63.0391 37.6448 62.7844L32.1996 58.8283C31.4159 58.2589 31.8186 57.0193 32.7874 57.0193H39.518C39.9512 57.0193 40.3352 56.7403 40.4691 56.3283L42.5489 49.9271Z" fill="#F9896B"/>
<g clip-path="url(#clip0_8_10)">
<path d="M31 0.26625L30.2177 5.88921C28.653 5.75768 27.3817 6.02075 26.4038 6.6784C25.4259 7.30318 24.7413 8.2239 24.3502 9.44056C23.9916 10.6243 23.9264 12.0054 24.1546 13.5838H31V27H17.7003V13.5838C17.7003 8.84867 18.7923 5.26444 20.9763 2.83111C23.1604 0.3649 26.5016 -0.490055 31 0.26625ZM13.2997 0.26625L12.5173 5.88921C10.9527 5.75768 9.68139 6.02075 8.70347 6.6784C7.72555 7.30318 7.04101 8.2239 6.64984 9.44056C6.29127 10.6243 6.22608 12.0054 6.45426 13.5838H13.2997V27H0V13.5838C0 8.84867 1.09201 5.26444 3.27603 2.83111C5.46004 0.3649 8.80126 -0.490055 13.2997 0.26625Z" fill="#FF7F5C"/>
</g>
<defs>
<clipPath id="clip0_8_10">
<rect width="31" height="27" fill="white"/>
</clipPath>
</defs>
</svg>
